<svg xmlns="http://www.w3.org/2000/svg">
  <symbol id="menu-button_menu" viewBox="0 0 24 18">
    <path d="M0 1.5 h24 M0 9 h24 M0 16.5 h24" stroke-width="3" />
  </symbol>

  <symbol id="menu-button_close" viewBox="0 0 24 18">
    <path d="M19 2 L5 16 M5 2 L19 16" stroke-width="3" stroke-linecap="round" />
  </symbol>
  
  <symbol id="call-back-button" viewBox="0 0 384 384">
    <g>
      <path d="M268.684,220.569 C257.499,220.569 246.517,218.82 236.11,215.381 C231.011,213.641 224.742,215.237 221.629,218.434 L201.088,233.94 C177.267,221.224 162.593,206.555 150.05,182.912 L165.1,162.906 C169.011,159.001 170.413,153.297 168.733,147.945 C165.279,137.483 163.524,126.507 163.524,115.317 C163.525,107.234 156.949,100.658 148.866,100.658 L115.316,100.658 C107.234,100.658 100.657,107.234 100.657,115.317 C100.657,207.967 176.033,283.342 268.684,283.342 C276.766,283.342 283.343,276.766 283.343,268.683 L283.343,235.228 C283.342,227.145 276.766,220.569 268.684,220.569 z"/>
      <circle cx="50%" cy="50%" r="185" fill="none" stroke-width="1" vector-effect="non-scaling-stroke"/>
    </g>
  </symbol>

  <symbol id="slider-button_prev" viewBox="0 0 14 24">
    <path d="M12.5,2.5 L2.5,12.5 L12.5,22.5" fill="none" stroke-width="3" stroke-linecap="round" stroke-linejoin="round"/>
  </symbol>

  <symbol id="slider-button_next" viewBox="0 0 14 24">
    <path d="M2.5,2.5 L12.5,12.5 L2.5,22.5" fill="none" stroke-width="3" stroke-linecap="round" stroke-linejoin="round"/>
  </symbol>

  <symbol id="socials_telegram" viewBox="0 0 24 24">
    <path d="m12 24c6.629 0 12-5.371 12-12s-5.371-12-12-12-12 5.371-12 12 5.371 12 12 12zm-6.509-12.26 11.57-4.461c.537-.194 1.006.131.832.943l.001-.001-1.97 9.281c-.146.658-.537.818-1.084.508l-3-2.211-1.447 1.394c-.16.16-.295.295-.605.295l.213-3.053 5.56-5.023c.242-.213-.054-.333-.373-.121l-6.871 4.326-2.962-.924c-.643-.204-.657-.643.136-.953z"/>
  </symbol>

  <symbol id="socials_github" viewBox="0 0 24 24">
    <path d="m12 .5c-6.63 0-12 5.28-12 11.792 0 5.211 3.438 9.63 8.205 11.188.6.111.82-.254.82-.567 0-.28-.01-1.022-.015-2.005-3.338.711-4.042-1.582-4.042-1.582-.546-1.361-1.335-1.725-1.335-1.725-1.087-.731.084-.716.084-.716 1.205.082 1.838 1.215 1.838 1.215 1.07 1.803 2.809 1.282 3.495.981.108-.763.417-1.282.76-1.577-2.665-.295-5.466-1.309-5.466-5.827 0-1.287.465-2.339 1.235-3.164-.135-.298-.54-1.497.105-3.121 0 0 1.005-.316 3.3 1.209.96-.262 1.98-.392 3-.398 1.02.006 2.04.136 3 .398 2.28-1.525 3.285-1.209 3.285-1.209.645 1.624.24 2.823.12 3.121.765.825 1.23 1.877 1.23 3.164 0 4.53-2.805 5.527-5.475 5.817.42.354.81 1.077.81 2.182 0 1.578-.015 2.846-.015 3.229 0 .309.21.678.825.56 4.801-1.548 8.236-5.97 8.236-11.173 0-6.512-5.373-11.792-12-11.792z"/>
  </symbol>

  <symbol id="socials_linkedin" viewBox="0 0 512 512">
    <path d="m475.074219 0h-438.148438c-20.394531 0-36.925781 16.53125-36.925781 36.925781v438.148438c0 20.394531 16.53125 36.925781 36.925781 36.925781h438.148438c20.394531 0 36.925781-16.53125 36.925781-36.925781v-438.148438c0-20.394531-16.53125-36.925781-36.925781-36.925781zm-293.464844 387h-62.347656v-187.574219h62.347656zm-31.171875-213.1875h-.40625c-20.921875 0-34.453125-14.402344-34.453125-32.402344 0-18.40625 13.945313-32.410156 35.273437-32.410156 21.328126 0 34.453126 14.003906 34.859376 32.410156 0 18-13.53125 32.402344-35.273438 32.402344zm255.984375 213.1875h-62.339844v-100.347656c0-25.21875-9.027343-42.417969-31.585937-42.417969-17.222656 0-27.480469 11.601563-31.988282 22.800781-1.648437 4.007813-2.050781 9.609375-2.050781 15.214844v104.75h-62.34375s.816407-169.976562 0-187.574219h62.34375v26.558594c8.285157-12.78125 23.109375-30.960937 56.1875-30.960937 41.019531 0 71.777344 26.808593 71.777344 84.421874zm0 0"/>
  </symbol>

  <symbol id="socials_instagram" viewBox="0 0 48 48">
    <path d="M13.86.13A17 17 0 008 1.26 11 11 0 003.8 4 12.22 12.22 0 001 8.28 18 18 0 00-.11 14.1c-.13 2.55-.13 3.38-.13 9.9s0 7.32.13 9.9A18 18 0 001 39.72 11.43 11.43 0 003.8 44 12.17 12.17 0 008 46.74a17.75 17.75 0 005.82 1.13c2.55.13 3.38.13 9.9.13s7.32 0 9.9-.13a17.82 17.82 0 005.83-1.13A11.4 11.4 0 0043.72 44a11.94 11.94 0 002.78-4.24 17.7 17.7 0 001.13-5.82c.13-2.55.13-3.38.13-9.9s0-7.32-.13-9.9a17 17 0 00-1.13-5.86A11.31 11.31 0 0043.72 4a12.13 12.13 0 00-4.23-2.78A17.82 17.82 0 0033.66.13C31.11 0 30.28 0 23.76 0s-7.31 0-9.9.13m.2 43.37a13.17 13.17 0 01-4.47-.83 7.25 7.25 0 01-2.74-1.79 7.25 7.25 0 01-1.79-2.74 13.23 13.23 0 01-.83-4.47c-.1-2.52-.13-3.28-.13-9.7s0-7.15.13-9.7a12.78 12.78 0 01.83-4.44 7.37 7.37 0 011.79-2.75A7.35 7.35 0 019.59 5.3a13.17 13.17 0 014.47-.83c2.52-.1 3.28-.13 9.7-.13s7.15 0 9.7.13a12.78 12.78 0 014.44.83 7.82 7.82 0 014.53 4.53 13.12 13.12 0 01.83 4.44c.13 2.51.13 3.27.13 9.7s0 7.15-.13 9.7a13.23 13.23 0 01-.83 4.47 7.9 7.9 0 01-4.53 4.53 13 13 0 01-4.44.83c-2.51.1-3.28.13-9.7.13s-7.15 0-9.7-.13m19.63-32.34a2.88 2.88 0 102.88-2.88 2.89 2.89 0 00-2.88 2.88M11.45 24a12.32 12.32 0 1012.31-12.35A12.33 12.33 0 0011.45 24m4.33 0a8 8 0 118 8 8 8 0 01-8-8"/>
  </symbol>
</svg>